<svg xmlns="http://www.w3.org/2000/svg" viewBox="0 0 15 16" fill="#ffba42"><path fill-rule="evenodd" clip-rule="evenodd" d="M7.5 15.5C11.6421 15.5 15 12.1421 15 8C15 3.85786 11.6421 0.5 7.5 0.5C3.35786 0.5 0 3.85786 0 8C0 12.1421 3.35786 15.5 7.5 15.5ZM7.50001 14.4491C11.0617 14.4491 13.9491 11.5617 13.9491 8C13.9491 4.43828 11.0617 1.55094 7.50001 1.55094C3.9383 1.55094 1.05095 4.43828 1.05095 8C1.05095 11.5617 3.9383 14.4491 7.50001 14.4491Z"></path><rect x="4.21875" y="9.25635" width="0.9375" height="3.28125" rx="0.46875" transform="rotate(-57.7092 4.21875 9.25635)"></rect><rect width="0.9375" height="7.03125" rx="0.46875" transform="matrix(0.845348 0.534217 0.534217 -0.845348 6.20007 10.5084)"></rect></svg>