<svg width="84" height="13" viewBox="0 0 84 13" fill="none" xmlns="http://www.w3.org/2000/svg">
<path d="M7.1248 0.274567C7.7136 0.274567 8.008 0.716167 8.008 1.59937C8.008 2.16257 7.8544 2.81217 7.5472 3.54817C7.0992 4.61697 6.4912 5.43937 5.7232 6.01537C5.4288 6.23297 5.128 6.39937 4.8208 6.51457C4.5136 7.30817 4.1264 7.88737 3.6592 8.25217C4.2992 8.72577 4.7632 9.03297 5.0512 9.17377C5.3392 9.32097 5.6176 9.39457 5.8864 9.39457C6.3536 9.39457 6.6608 9.23137 6.808 8.90497C6.8528 8.80257 6.8752 8.70657 6.8752 8.61697C6.8752 8.52737 6.8496 8.45057 6.7984 8.38657C6.7536 8.32897 6.6992 8.30017 6.6352 8.30017C6.6544 8.22337 6.7024 8.18497 6.7792 8.18497C6.9968 8.18497 7.1408 8.30657 7.2112 8.54977C7.2368 8.63297 7.2496 8.71297 7.2496 8.78977C7.2496 8.98177 7.176 9.16097 7.0288 9.32737C6.824 9.57057 6.52 9.69217 6.1168 9.69217C5.6112 9.69217 5.1248 9.54497 4.6576 9.25057C4.3952 9.09057 4.2032 8.96577 4.0816 8.87617C3.9664 8.78657 3.7584 8.62657 3.4576 8.39617C3.0608 8.64577 2.6224 8.77057 2.1424 8.77057C1.432 8.77057 0.971199 8.59137 0.759999 8.23297C0.702399 8.12417 0.673599 8.01217 0.673599 7.89697C0.673599 7.77537 0.724799 7.65057 0.827199 7.52257C0.987199 7.32417 1.2176 7.22497 1.5184 7.22497C1.9984 7.22497 2.5968 7.48417 3.3136 8.00257C3.6016 7.70817 3.8608 7.26977 4.0912 6.68737C4.0272 6.69377 3.9344 6.69697 3.8128 6.69697C2.7696 6.69697 2.0048 6.28097 1.5184 5.44897C1.224 4.93697 1.0768 4.37057 1.0768 3.74977C1.0768 3.53857 1.0928 3.32417 1.1248 3.10657C1.24 2.29377 1.5408 1.67297 2.0272 1.24417C2.36 0.962567 2.7376 0.821767 3.16 0.821767C3.5824 0.821767 3.9088 0.959367 4.1392 1.23457C4.3696 1.50977 4.4912 1.84897 4.504 2.25217C4.504 2.30977 4.472 2.35777 4.408 2.39617C4.344 2.42817 4.28 2.43777 4.216 2.42497C4.152 2.40577 4.12 2.36417 4.12 2.30017C4.1072 1.91617 4.0304 1.61217 3.8896 1.38817C3.7488 1.15777 3.496 1.04257 3.1312 1.04257C2.5552 1.04257 2.0912 1.35937 1.7392 1.99297C1.4576 2.49217 1.3168 3.04257 1.3168 3.64417C1.3168 4.74497 1.672 5.54177 2.3824 6.03457C2.7728 6.30977 3.2464 6.44737 3.8032 6.44737C3.9312 6.44737 4.0624 6.43777 4.1968 6.41857C4.344 6.02177 4.5008 5.50337 4.6672 4.86337C4.8336 4.21697 4.9808 3.65697 5.1088 3.18337C5.2432 2.70337 5.4 2.22657 5.5792 1.75297C5.9504 0.767367 6.4656 0.274567 7.1248 0.274567ZM7.0192 0.552966C6.5712 0.552966 6.2288 0.984967 5.992 1.84897C5.8768 2.26497 5.7744 2.69377 5.6848 3.13537C5.4224 4.48577 5.1792 5.49377 4.9552 6.15937C5.7424 5.75617 6.3856 5.00097 6.8848 3.89377C7.288 3.01057 7.4864 2.19777 7.48 1.45537C7.4608 0.866567 7.3072 0.565767 7.0192 0.552966ZM3.1408 8.16577C2.5136 7.69857 1.9728 7.46497 1.5184 7.46497C1.2304 7.46497 1.048 7.56737 0.971199 7.77217C0.887999 7.97057 0.974399 8.15937 1.2304 8.33857C1.4224 8.47297 1.7136 8.54017 2.104 8.54017C2.4944 8.54017 2.84 8.41537 3.1408 8.16577Z" fill="black"/>
<path d="M8.24781 6.85057C8.24781 7.62497 8.52301 8.01217 9.07341 8.01217C9.27821 8.01217 9.49261 7.92257 9.71661 7.74337C9.94701 7.55777 10.155 7.33697 10.3406 7.08097C10.7502 6.49217 11.0382 6.01217 11.2046 5.64097L11.3294 5.37217H11.5886C11.4798 5.62817 11.3198 5.94497 11.1086 6.32257C10.8974 6.69377 10.6958 7.00737 10.5038 7.26337C10.3118 7.51937 10.0846 7.75297 9.82221 7.96417C9.55981 8.16897 9.31021 8.27137 9.07341 8.27137C8.12621 8.27137 7.65261 7.74017 7.65261 6.67777C7.65261 6.18497 7.79661 5.69217 8.08461 5.19937C8.48141 4.51457 8.97101 4.17217 9.55341 4.17217C9.96301 4.17217 10.1678 4.39617 10.1678 4.84417C10.1678 5.17697 10.0398 5.52257 9.78381 5.88097C9.42541 6.36737 9.00621 6.61377 8.52621 6.62017C8.45581 6.62017 8.41101 6.58817 8.39181 6.52417L8.38221 6.48577C8.71501 6.48577 9.03181 6.26817 9.33261 5.83297C9.63981 5.39137 9.79341 5.02337 9.79341 4.72897C9.79341 4.53057 9.71661 4.43137 9.56301 4.43137C9.22381 4.43137 8.90701 4.72897 8.61261 5.32417C8.36941 5.82977 8.24781 6.33857 8.24781 6.85057Z" fill="black"/>
<path d="M11.593 8.26177C11.0874 8.26177 10.8346 7.88097 10.8346 7.11937C10.8346 6.67777 10.9498 6.19457 11.1802 5.66977C11.5002 4.95937 11.9066 4.49537 12.3994 4.27777C12.5722 4.20737 12.745 4.17217 12.9178 4.17217C13.097 4.17217 13.2378 4.22337 13.3402 4.32577C13.4426 4.42817 13.4938 4.54337 13.4938 4.67137C13.4938 4.72897 13.4618 4.75777 13.3978 4.75777C13.3402 4.75137 13.3114 4.71937 13.3114 4.66177C13.3114 4.60417 13.2794 4.55297 13.2154 4.50817C13.1578 4.45697 13.0714 4.43137 12.9562 4.43137C12.553 4.43137 12.1882 4.79297 11.8618 5.51617C11.5546 6.18817 11.401 6.82497 11.401 7.42657C11.401 7.79777 11.481 7.98337 11.641 7.98337C11.8074 7.98337 12.0058 7.84577 12.2362 7.57057C12.473 7.28897 12.6906 6.96257 12.889 6.59137C13.3178 5.81057 13.5706 5.30817 13.6474 5.08417C13.7242 4.86017 13.8074 4.74817 13.897 4.74817C14.057 4.74817 14.137 4.88257 14.137 5.15137C14.137 5.23457 14.1274 5.33057 14.1082 5.43937C13.897 6.46337 13.7818 7.05537 13.7626 7.21537C13.7498 7.37537 13.7434 7.49057 13.7434 7.56097C13.7434 7.86817 13.817 8.02177 13.9642 8.02177C14.1306 8.02177 14.3642 7.80097 14.665 7.35937C14.9658 6.91777 15.225 6.47617 15.4426 6.03457L15.769 5.37217H16.0282C15.9898 5.44897 15.9386 5.55457 15.8746 5.68897C15.817 5.81697 15.6986 6.05057 15.5194 6.38977C15.3402 6.72257 15.1674 7.01697 15.001 7.27297C14.841 7.52897 14.6586 7.76257 14.4538 7.97377C14.2554 8.17857 14.0826 8.28097 13.9354 8.28097C13.4618 8.28097 13.225 7.93537 13.225 7.24417C13.225 7.01377 13.2506 6.74497 13.3018 6.43777H13.2346C12.5818 7.65377 12.0346 8.26177 11.593 8.26177Z" fill="black"/>
<path d="M19.1811 2.86657C18.9955 3.53857 18.8483 4.09857 18.7395 4.54657C18.6371 4.98817 18.5219 5.50337 18.3939 6.09217C18.2723 6.67457 18.2115 7.14177 18.2115 7.49377C18.2115 7.84577 18.2915 8.02177 18.4515 8.02177C18.6243 8.02177 18.8611 7.80097 19.1619 7.35937C19.4691 6.91777 19.7315 6.47617 19.9491 6.03457L20.2659 5.37217H20.5251C20.4867 5.44897 20.4355 5.55457 20.3715 5.68897C20.3139 5.81697 20.1955 6.05057 20.0163 6.38977C19.8371 6.72257 19.6643 7.01697 19.4979 7.27297C19.3379 7.52897 19.1555 7.76257 18.9507 7.97377C18.7459 8.17857 18.5699 8.28097 18.4227 8.28097C17.9619 8.28097 17.7315 7.94177 17.7315 7.26337C17.7315 7.01377 17.7667 6.68737 17.8371 6.28417H17.7603C17.0499 7.60257 16.4739 8.26177 16.0323 8.26177C15.5267 8.26177 15.2739 7.88097 15.2739 7.11937C15.2739 6.67777 15.3891 6.19457 15.6195 5.66977C15.9395 4.95937 16.3459 4.49537 16.8387 4.27777C17.0115 4.20737 17.1843 4.17217 17.3571 4.17217C17.5363 4.17217 17.6771 4.22337 17.7795 4.32577C17.8819 4.42817 17.9331 4.54337 17.9331 4.67137C17.9331 4.72897 17.9011 4.75777 17.8371 4.75777C17.7795 4.75137 17.7507 4.71937 17.7507 4.66177C17.7507 4.60417 17.7187 4.55297 17.6547 4.50817C17.5971 4.45697 17.5107 4.43137 17.3955 4.43137C16.9923 4.43137 16.6275 4.79297 16.3011 5.51617C15.9939 6.18817 15.8403 6.82497 15.8403 7.42657C15.8403 7.79777 15.9203 7.98337 16.0803 7.98337C16.2979 7.98337 16.5699 7.74657 16.8963 7.27297C17.2227 6.79937 17.5075 6.29057 17.7507 5.74657C18.0003 5.20257 18.1763 4.70657 18.2787 4.25857C18.3875 3.80417 18.5507 3.18657 18.7683 2.40577C18.9091 1.90017 19.0947 1.64737 19.3251 1.64737C19.3763 1.64737 19.4147 1.66657 19.4403 1.70497C19.4659 1.73697 19.4755 1.77217 19.4691 1.81057C19.4627 1.84257 19.3667 2.19457 19.1811 2.86657Z" fill="black"/>
<path d="M23.7991 8.36737C23.5879 7.97057 23.4823 7.50337 23.4823 6.96577C23.4823 6.46657 23.5655 6.02177 23.7319 5.63137C23.9047 5.23457 24.0903 4.91777 24.2887 4.68097C24.4935 4.43777 24.7399 4.24577 25.0279 4.10497C25.3223 3.95777 25.6327 3.88417 25.9591 3.88417C26.4199 3.88417 26.7879 4.01537 27.0631 4.27777L28.3207 3.22177C28.2951 2.99777 28.2823 2.77697 28.2823 2.55937C28.2823 1.13857 28.6567 0.428166 29.4055 0.428166C29.5975 0.428166 29.7479 0.495367 29.8567 0.629767C29.9655 0.764167 30.0263 0.936967 30.0391 1.14817C30.0455 1.45537 29.9463 1.76257 29.7415 2.06977C29.5431 2.37697 29.2487 2.71297 28.8583 3.07777C29.0567 4.40257 29.1559 5.30497 29.1559 5.78497C29.1559 6.25857 29.0951 6.71937 28.9735 7.16737C28.8519 7.60897 28.6663 8.01217 28.4167 8.37697C28.1671 8.74177 27.8247 9.02657 27.3895 9.23137C26.9543 9.43617 26.4487 9.53857 25.8727 9.53857C25.0471 9.53857 24.4231 9.25697 24.0007 8.69377C23.8855 9.09697 23.8279 9.55457 23.8279 10.0666C23.8279 10.585 23.9623 11.049 24.2311 11.4586C24.5063 11.8746 24.8583 12.0826 25.2871 12.0826C25.3191 12.0826 25.3351 12.1146 25.3351 12.1786C25.3415 12.2426 25.3255 12.2746 25.2871 12.2746C24.7815 12.2746 24.3655 12.0346 24.0391 11.5546C23.7127 11.081 23.5495 10.553 23.5495 9.97057C23.5495 9.38817 23.6327 8.85377 23.7991 8.36737ZM27.2263 4.46017C27.4055 4.70337 27.4951 4.97857 27.4951 5.28577C27.4951 5.58657 27.4471 5.85857 27.3511 6.10177C27.2615 6.33857 27.0983 6.54977 26.8615 6.73537C26.6311 6.91457 26.3623 7.00417 26.0551 7.00417C25.9911 7.00417 25.9399 6.98817 25.9015 6.95617C25.8695 6.92417 25.8471 6.87297 25.8343 6.80257C26.1095 6.80257 26.3623 6.67457 26.5927 6.41857C26.9255 6.06017 27.0919 5.65697 27.0919 5.20897C27.0919 5.02337 27.0567 4.84417 26.9863 4.67137C26.2695 5.28577 25.6647 5.88737 25.1719 6.47617C24.6791 7.06497 24.3175 7.70497 24.0871 8.39617C24.4519 8.98497 25.0247 9.27937 25.8055 9.27937C26.2855 9.27937 26.7047 9.17697 27.0631 8.97217C27.4279 8.77377 27.7127 8.50177 27.9175 8.15617C28.3207 7.47777 28.5223 6.65537 28.5223 5.68897C28.5223 5.45217 28.4647 4.73217 28.3495 3.52897L27.2263 4.46017ZM26.8423 4.46977C26.6375 4.25217 26.3559 4.14337 25.9975 4.14337C25.6391 4.14337 25.3159 4.22977 25.0279 4.40257C24.4967 4.72257 24.1159 5.26017 23.8855 6.01537C23.7831 6.33537 23.7319 6.66497 23.7319 7.00417C23.7319 7.38177 23.7927 7.73057 23.9143 8.05057C24.3559 6.94337 25.3319 5.74977 26.8423 4.46977ZM28.7719 2.06977C28.7719 2.24257 28.7879 2.47297 28.8199 2.76097C29.4535 2.14017 29.7703 1.61537 29.7703 1.18657C29.7703 0.853766 29.6487 0.687366 29.4055 0.687366C28.9831 0.687366 28.7719 1.14817 28.7719 2.06977Z" fill="black"/>
<path d="M33.1979 8.02177C33.3643 8.02177 33.5979 7.80097 33.8987 7.35937C34.1995 6.91777 34.4587 6.47617 34.6763 6.03457L35.0027 5.37217H35.2619C35.2235 5.44897 35.1723 5.55457 35.1083 5.68897C35.0507 5.81697 34.9323 6.05057 34.7531 6.38977C34.5739 6.72257 34.4011 7.01697 34.2347 7.27297C34.0747 7.52897 33.8923 7.76257 33.6875 7.97377C33.4891 8.17857 33.3003 8.28097 33.1211 8.28097C32.9419 8.28097 32.7947 8.22657 32.6795 8.11777C32.5387 7.97697 32.4683 7.73057 32.4683 7.37857C32.4683 7.02657 32.5291 6.56257 32.6507 5.98657H32.5835C31.8475 7.49697 31.2363 8.25217 30.7499 8.25217C30.3211 8.25217 30.1067 7.97377 30.1067 7.41697C30.1067 7.01377 30.2795 6.21057 30.6251 5.00737C30.7019 4.73217 30.7595 4.52737 30.7979 4.39297C30.8363 4.25217 30.8971 4.18177 30.9803 4.18177C31.0955 4.18177 31.1787 4.26497 31.2299 4.43137C31.2555 4.50177 31.2683 4.59137 31.2683 4.70017C31.2683 4.80257 31.2523 4.91777 31.2203 5.04577C31.1883 5.16737 31.1211 5.40417 31.0187 5.75617C30.7435 6.70337 30.6059 7.34017 30.6059 7.66657C30.6059 7.87777 30.6699 7.98337 30.7979 7.98337C30.9579 7.98337 31.1467 7.83937 31.3643 7.55137C31.5947 7.25057 31.7835 6.95937 31.9307 6.67777C32.0779 6.39617 32.1963 6.16577 32.2859 5.98657C32.3755 5.80737 32.4651 5.62177 32.5547 5.42977C32.6443 5.23137 32.7147 5.06817 32.7659 4.94017C32.8235 4.81217 32.8779 4.69057 32.9291 4.57537C32.9803 4.45377 33.0059 4.38977 33.0059 4.38337C33.0635 4.24897 33.1275 4.18177 33.1979 4.18177C33.3131 4.18177 33.3963 4.26497 33.4475 4.43137C33.4731 4.50817 33.4859 4.60097 33.4859 4.70977C33.4859 4.81857 33.4731 4.93377 33.4475 5.05537C33.4219 5.17057 33.3803 5.34337 33.3227 5.57377C33.2651 5.80417 33.2203 5.99297 33.1883 6.14017C33.1563 6.28737 33.1179 6.46657 33.0731 6.67777C33.0091 7.02977 32.9771 7.34337 32.9771 7.61857C32.9771 7.88737 33.0507 8.02177 33.1979 8.02177Z" fill="black"/>
<path d="M36.035 2.50177C36.1822 2.50177 36.2558 2.60097 36.2558 2.79937C36.2558 2.99777 36.1598 3.15777 35.9678 3.27937C35.8718 3.34337 35.7886 3.37537 35.7182 3.37537C35.6158 3.37537 35.555 3.34337 35.5358 3.27937L35.5262 3.25057C35.5838 3.25057 35.6254 3.18977 35.651 3.06817C35.6766 2.94017 35.715 2.81537 35.7662 2.69377C35.8238 2.56577 35.9134 2.50177 36.035 2.50177ZM35.4206 8.02177C35.587 8.02177 35.8206 7.80097 36.1214 7.35937C36.4222 6.91777 36.6814 6.47617 36.899 6.03457L37.2254 5.37217H37.4846C37.4462 5.44897 37.395 5.55457 37.331 5.68897C37.2734 5.81697 37.155 6.05057 36.9758 6.38977C36.7966 6.72257 36.6238 7.01697 36.4574 7.27297C36.2974 7.52897 36.115 7.76257 35.9102 7.97377C35.7118 8.17857 35.539 8.28097 35.3918 8.28097C34.9182 8.28097 34.6814 7.97377 34.6814 7.35937C34.6814 6.89857 34.8126 6.14977 35.075 5.11297C35.1006 5.00417 35.1198 4.92097 35.1326 4.86337C35.1518 4.80577 35.171 4.73217 35.1902 4.64257C35.2094 4.54657 35.2286 4.46017 35.2478 4.38337C35.2798 4.24897 35.3374 4.18177 35.4206 4.18177C35.5358 4.18177 35.619 4.26497 35.6702 4.43137C35.6958 4.50817 35.7086 4.60097 35.7086 4.70977C35.7086 4.81857 35.6958 4.93377 35.6702 5.05537C35.6446 5.17057 35.603 5.34337 35.5454 5.57377C35.4878 5.80417 35.443 5.99297 35.411 6.14017C35.379 6.28737 35.3438 6.46657 35.3054 6.67777C35.235 7.02977 35.1998 7.34337 35.1998 7.61857C35.1998 7.88737 35.2734 8.02177 35.4206 8.02177Z" fill="black"/>
<path d="M36.9421 4.05697C36.9421 3.98657 36.9869 3.95137 37.0765 3.95137H37.5757C37.6077 3.82337 37.6493 3.66337 37.7005 3.47137L37.8349 2.97217C37.8733 2.82497 37.9053 2.69057 37.9309 2.56897C37.9629 2.44737 38.0205 2.38657 38.1037 2.38657C38.2125 2.38657 38.2893 2.46977 38.3341 2.63617C38.3533 2.70657 38.3629 2.79297 38.3629 2.89537C38.3629 2.99777 38.3437 3.12897 38.3053 3.28897L38.1229 3.95137H38.7181C38.7757 3.95137 38.8141 3.97057 38.8333 4.00897C38.8589 4.04737 38.8589 4.08577 38.8333 4.12417C38.8141 4.15617 38.7757 4.17217 38.7181 4.17217H38.0653C37.6685 5.66337 37.4701 6.71937 37.4701 7.34017C37.4701 7.79457 37.5725 8.02177 37.7773 8.02177C37.9437 8.02177 38.1773 7.80097 38.4781 7.35937C38.7789 6.91777 39.0381 6.47617 39.2557 6.03457L39.5821 5.37217H39.8413C39.8029 5.44897 39.7517 5.55457 39.6877 5.68897C39.6301 5.81697 39.5117 6.05057 39.3325 6.38977C39.1533 6.72257 38.9805 7.01697 38.8141 7.27297C38.6541 7.52897 38.4717 7.76257 38.2669 7.97377C38.0685 8.17857 37.8829 8.28097 37.7101 8.28097C37.5373 8.28097 37.3869 8.22657 37.2589 8.11777C37.1373 8.00257 37.0605 7.84257 37.0285 7.63777C36.9901 7.42657 36.9709 7.21217 36.9709 6.99457C36.9709 6.48897 37.1501 5.54817 37.5085 4.17217H37.0765C37.0253 4.17217 36.9901 4.15937 36.9709 4.13377C36.9517 4.10177 36.9421 4.07617 36.9421 4.05697Z" fill="black"/>
<path d="M39.8181 6.85057C39.8181 7.62497 40.0933 8.01217 40.6437 8.01217C40.8485 8.01217 41.0629 7.92257 41.2869 7.74337C41.5173 7.55777 41.7253 7.33697 41.9109 7.08097C42.3205 6.49217 42.6085 6.01217 42.7749 5.64097L42.8997 5.37217H43.1589C43.0501 5.62817 42.8901 5.94497 42.6789 6.32257C42.4677 6.69377 42.2661 7.00737 42.0741 7.26337C41.8821 7.51937 41.6549 7.75297 41.3925 7.96417C41.1301 8.16897 40.8805 8.27137 40.6437 8.27137C39.6965 8.27137 39.2229 7.74017 39.2229 6.67777C39.2229 6.18497 39.3669 5.69217 39.6549 5.19937C40.0517 4.51457 40.5413 4.17217 41.1237 4.17217C41.5333 4.17217 41.7381 4.39617 41.7381 4.84417C41.7381 5.17697 41.6101 5.52257 41.3541 5.88097C40.9957 6.36737 40.5765 6.61377 40.0965 6.62017C40.0261 6.62017 39.9813 6.58817 39.9621 6.52417L39.9525 6.48577C40.2853 6.48577 40.6021 6.26817 40.9029 5.83297C41.2101 5.39137 41.3637 5.02337 41.3637 4.72897C41.3637 4.53057 41.2869 4.43137 41.1333 4.43137C40.7941 4.43137 40.4773 4.72897 40.1829 5.32417C39.9397 5.82977 39.8181 6.33857 39.8181 6.85057Z" fill="black"/>
<path d="M53.9949 1.51297L53.4093 1.33057C53.1021 1.80417 52.7757 2.65537 52.4301 3.88417C52.2893 4.37057 52.1325 4.88577 51.9597 5.42977C51.7933 5.96737 51.5981 6.47297 51.3741 6.94657C51.1565 7.41377 50.9037 7.83937 50.6157 8.22337C50.3341 8.60737 49.9821 8.91137 49.5597 9.13537C49.1373 9.35937 48.6637 9.47137 48.1389 9.47137C47.1981 9.47137 46.5133 9.13537 46.0845 8.46337C45.8477 8.08577 45.7293 7.67937 45.7293 7.24417C45.7293 7.06497 45.7485 6.88257 45.7869 6.69697C45.9213 6.07617 46.2253 5.63457 46.6989 5.37217C46.9485 5.23137 47.2269 5.16097 47.5341 5.16097C48.1933 5.16097 48.6381 5.41697 48.8685 5.92897C48.9645 6.14017 49.0125 6.35777 49.0125 6.58177C49.0125 6.79937 48.9677 7.02017 48.8781 7.24417C48.6605 7.78177 48.3053 8.05057 47.8125 8.05057C47.7357 8.05057 47.6717 8.03457 47.6205 8.00257C47.5693 7.96417 47.5309 7.90977 47.5053 7.83937C47.6781 7.83937 47.8413 7.79457 47.9949 7.70497C48.2509 7.55137 48.4493 7.27297 48.5901 6.86977C48.6349 6.73537 48.6573 6.62657 48.6573 6.54337C48.6573 6.45377 48.6509 6.35457 48.6381 6.24577C48.6253 6.13057 48.5837 5.99937 48.5133 5.85217C48.4429 5.70497 48.3213 5.58657 48.1485 5.49697C47.9757 5.40737 47.7709 5.36257 47.5341 5.36257C46.9261 5.36257 46.4781 5.63137 46.1901 6.16897C46.0237 6.47617 45.9405 6.76737 45.9405 7.04257C45.9405 7.31777 45.9693 7.56417 46.0269 7.78177C46.1933 8.38977 46.5421 8.80897 47.0733 9.03937C47.3229 9.14817 47.6397 9.20257 48.0237 9.20257C48.4077 9.20257 48.7949 9.09377 49.1853 8.87617C49.5821 8.66497 49.9213 8.37697 50.2029 8.01217C50.4909 7.64097 50.7501 7.22817 50.9805 6.77377C51.2109 6.31937 51.4189 5.82977 51.6045 5.30497C51.7965 4.77377 51.9693 4.27137 52.1229 3.79777C52.5325 2.58177 52.8877 1.73377 53.1885 1.25377C52.2221 0.952967 51.5213 0.802567 51.0861 0.802567C50.2605 0.802567 49.6461 1.11617 49.2429 1.74337C49.0125 2.10177 48.8973 2.46977 48.8973 2.84737C48.8973 2.95617 48.9101 3.06817 48.9357 3.18337C49.0061 3.60577 49.1949 3.85857 49.5021 3.94177C49.5597 3.95457 49.6173 3.96097 49.6749 3.96097C49.6365 4.09537 49.5309 4.16257 49.3581 4.16257C48.9677 4.16257 48.6925 3.95457 48.5325 3.53857C48.4557 3.34017 48.4173 3.11937 48.4173 2.87617C48.4173 2.63297 48.4813 2.36097 48.6093 2.06017C48.8781 1.41377 49.3517 0.972167 50.0301 0.735367C50.3501 0.626567 50.7149 0.572167 51.1245 0.572167C51.5405 0.572167 52.2701 0.738567 53.3133 1.07137C53.6269 0.623367 53.9853 0.399367 54.3885 0.399367C54.4397 0.399367 54.4781 0.415367 54.5037 0.447367C54.5293 0.479367 54.5453 0.524167 54.5517 0.581767C54.1741 0.581767 53.8381 0.770567 53.5437 1.14817C53.8317 1.23777 54.0173 1.29857 54.1005 1.33057C54.3693 0.863367 54.6221 0.629767 54.8589 0.629767C54.9677 0.629767 55.0317 0.661767 55.0509 0.725766L55.0605 0.754567C54.8813 0.754567 54.6925 0.991367 54.4941 1.46497L55.8669 1.90657C56.2957 1.10017 56.7437 0.696967 57.2109 0.696967C57.2749 0.696967 57.3261 0.712967 57.3645 0.744967C57.4029 0.776967 57.4285 0.824967 57.4413 0.888967C56.9613 0.888967 56.5197 1.25377 56.1165 1.98337C56.4621 2.07297 56.6765 2.12417 56.7597 2.13697C57.1373 1.38817 57.4765 1.01377 57.7773 1.01377C57.8861 1.01377 57.9501 1.04577 57.9693 1.10977L57.9789 1.13857C57.7677 1.13857 57.5117 1.49377 57.2109 2.20417C57.2557 2.21057 57.3165 2.21377 57.3933 2.21377C58.0269 2.21377 58.4717 2.02497 58.7277 1.64737C58.8365 1.50017 58.8909 1.37537 58.8909 1.27297C58.8909 0.984967 58.7629 0.840967 58.5069 0.840967C58.5645 0.751367 58.6573 0.706567 58.7853 0.706567C59.0349 0.706567 59.1981 0.831367 59.2749 1.08097C59.2941 1.15777 59.3037 1.23137 59.3037 1.30177C59.3037 1.51297 59.2141 1.72097 59.0349 1.92577C58.7213 2.27137 58.2381 2.44417 57.5853 2.44417C57.4317 2.44417 57.2813 2.43137 57.1341 2.40577C56.8525 3.12897 56.6093 3.96417 56.4045 4.91137C56.2061 5.85857 56.1069 6.70337 56.1069 7.44577C56.1069 8.18817 56.2573 8.55937 56.5581 8.55937C56.4941 8.68737 56.4013 8.75137 56.2797 8.75137C55.7805 8.75137 55.5309 8.20417 55.5309 7.10977C55.5309 6.46337 55.6333 5.69537 55.8381 4.80577C56.0429 3.90977 56.3213 3.08097 56.6733 2.31937C56.5069 2.28737 56.2893 2.23297 56.0205 2.15617C55.7389 2.70657 55.4413 3.51297 55.1277 4.57537C54.8205 5.63137 54.5453 6.49857 54.3021 7.17697C54.0653 7.85537 53.8253 8.19457 53.5821 8.19457C53.0957 8.19457 52.8525 7.61217 52.8525 6.44737C52.8525 5.73697 52.9549 4.90497 53.1597 3.95137C53.3709 2.99777 53.6493 2.18497 53.9949 1.51297ZM53.4957 6.84097C53.4957 7.37857 53.5597 7.64737 53.6877 7.64737C53.8221 7.64737 53.9853 7.34017 54.1773 6.72577C54.3757 6.11137 54.6189 5.32417 54.9069 4.36417C55.2013 3.40417 55.4893 2.64577 55.7709 2.08897C55.1949 1.90977 54.7437 1.76577 54.4173 1.65697C54.1357 2.41217 53.9021 3.38817 53.7165 4.58497C53.5693 5.55137 53.4957 6.30337 53.4957 6.84097Z" fill="black"/>
<path d="M58.2805 8.26177C57.7749 8.26177 57.5221 7.88097 57.5221 7.11937C57.5221 6.67777 57.6373 6.19457 57.8677 5.66977C58.1877 4.95937 58.5941 4.49537 59.0869 4.27777C59.2597 4.20737 59.4325 4.17217 59.6053 4.17217C59.7845 4.17217 59.9253 4.22337 60.0277 4.32577C60.1301 4.42817 60.1813 4.54337 60.1813 4.67137C60.1813 4.72897 60.1493 4.75777 60.0853 4.75777C60.0277 4.75137 59.9989 4.71937 59.9989 4.66177C59.9989 4.60417 59.9669 4.55297 59.9029 4.50817C59.8453 4.45697 59.7589 4.43137 59.6437 4.43137C59.2405 4.43137 58.8757 4.79297 58.5493 5.51617C58.2421 6.18817 58.0885 6.82497 58.0885 7.42657C58.0885 7.79777 58.1685 7.98337 58.3285 7.98337C58.4949 7.98337 58.6933 7.84577 58.9237 7.57057C59.1605 7.28897 59.3781 6.96257 59.5765 6.59137C60.0053 5.81057 60.2581 5.30817 60.3349 5.08417C60.4117 4.86017 60.4949 4.74817 60.5845 4.74817C60.7445 4.74817 60.8245 4.88257 60.8245 5.15137C60.8245 5.23457 60.8149 5.33057 60.7957 5.43937C60.5845 6.46337 60.4693 7.05537 60.4501 7.21537C60.4373 7.37537 60.4309 7.49057 60.4309 7.56097C60.4309 7.86817 60.5045 8.02177 60.6517 8.02177C60.8181 8.02177 61.0517 7.80097 61.3525 7.35937C61.6533 6.91777 61.9125 6.47617 62.1301 6.03457L62.4565 5.37217H62.7157C62.6773 5.44897 62.6261 5.55457 62.5621 5.68897C62.5045 5.81697 62.3861 6.05057 62.2069 6.38977C62.0277 6.72257 61.8549 7.01697 61.6885 7.27297C61.5285 7.52897 61.3461 7.76257 61.1413 7.97377C60.9429 8.17857 60.7701 8.28097 60.6229 8.28097C60.1493 8.28097 59.9125 7.93537 59.9125 7.24417C59.9125 7.01377 59.9381 6.74497 59.9893 6.43777H59.9221C59.2693 7.65377 58.7221 8.26177 58.2805 8.26177Z" fill="black"/>
<path d="M62.307 8.25217C62.1278 8.25217 62.0382 8.11457 62.0382 7.83937C62.0382 7.69217 62.2174 6.62017 62.5758 4.62337C62.6014 4.48897 62.659 4.42177 62.7486 4.42177C62.8638 4.42177 62.9502 4.50497 63.0078 4.67137C63.0398 4.76097 63.0558 4.86017 63.0558 4.96897C63.0558 5.07137 63.043 5.18337 63.0174 5.30497L62.8638 6.09217H62.9118C63.4622 4.81217 63.9678 4.17217 64.4286 4.17217C64.6846 4.17217 64.8542 4.29697 64.9374 4.54657C64.9694 4.64257 64.9854 4.75457 64.9854 4.88257C64.9854 5.00417 64.9502 5.13857 64.8798 5.28577C64.7582 5.53537 64.5758 5.66017 64.3326 5.66017C64.2814 5.66017 64.2398 5.64737 64.2078 5.62177C64.1822 5.59617 64.1662 5.56097 64.1598 5.51617C64.211 5.51617 64.2782 5.42337 64.3614 5.23777C64.4446 5.04577 64.4926 4.86977 64.5054 4.70977C64.5182 4.54977 64.4638 4.45697 64.3422 4.43137C64.1182 4.43137 63.8526 4.72257 63.5454 5.30497C63.2382 5.88737 62.9918 6.44417 62.8062 6.97537C62.6206 7.50657 62.5118 7.85217 62.4798 8.01217C62.4478 8.17217 62.3902 8.25217 62.307 8.25217Z" fill="black"/>
<path d="M67.4168 5.75617C67.6664 5.39137 67.7912 5.07777 67.7912 4.81537C67.7912 4.55297 67.7048 4.42177 67.532 4.42177C67.3272 4.42177 67.1032 4.59457 66.86 4.94017C66.6168 5.27937 66.3992 5.68577 66.2072 6.15937C65.836 7.07457 65.6088 7.70817 65.5256 8.06017C65.4872 8.18817 65.4328 8.25217 65.3624 8.25217C65.2472 8.25217 65.1608 8.18177 65.1032 8.04097C65.0712 7.96417 65.0552 7.88417 65.0552 7.80097C65.0552 7.71137 65.0808 7.55137 65.132 7.32097C65.1832 7.08417 65.2696 6.67137 65.3912 6.08257C65.5064 5.49377 65.6056 5.00737 65.6888 4.62337C65.772 4.23297 65.868 3.79777 65.9768 3.31777C66.0856 2.83137 66.188 2.43777 66.284 2.13697C66.3864 1.82977 66.5016 1.53537 66.6296 1.25377C66.8728 0.703367 67.1512 0.428166 67.4648 0.428166C67.7528 0.428166 67.8968 0.620167 67.8968 1.00417C67.8968 1.10017 67.8872 1.21217 67.868 1.34017C67.772 1.94817 67.5192 2.57537 67.1096 3.22177C66.8152 3.68897 66.5368 3.98337 66.2744 4.10497C66.2296 4.34177 66.1688 4.68097 66.092 5.12257C66.0152 5.56417 65.9608 5.87137 65.9288 6.04417H65.9768C66.5208 4.80897 67.0744 4.19137 67.6376 4.19137C68.06 4.19137 68.2712 4.42497 68.2712 4.89217C68.2712 5.19937 68.14 5.53217 67.8776 5.89057C67.6216 6.24897 67.276 6.47937 66.8408 6.58177C67.0584 6.66497 67.2408 6.81217 67.388 7.02337C67.5416 7.22817 67.6472 7.42657 67.7048 7.61857C67.852 8.12417 67.9992 8.37697 68.1464 8.37697C68.1464 8.42177 68.1176 8.46657 68.06 8.51137C68.0024 8.55617 67.9352 8.57857 67.8584 8.57857C67.6408 8.57857 67.468 8.47617 67.34 8.27137C67.2184 8.06657 67.1384 7.84257 67.1 7.59937C67.0616 7.35617 66.9912 7.13217 66.8888 6.92737C66.7864 6.72257 66.6456 6.62017 66.4664 6.62017H66.4472C66.3896 6.62017 66.348 6.57537 66.3224 6.48577C66.7192 6.48577 67.084 6.24257 67.4168 5.75617ZM67.676 1.02337C67.676 0.818567 67.6184 0.693767 67.5032 0.648967C67.1256 0.648967 66.7352 1.70497 66.332 3.81697C66.588 3.63777 66.8536 3.27937 67.1288 2.74177C67.4936 2.01857 67.676 1.44577 67.676 1.02337Z" fill="black"/>
<path d="M69.4314 6.85057C69.4314 7.62497 69.7066 8.01217 70.257 8.01217C70.4618 8.01217 70.6762 7.92257 70.9002 7.74337C71.1306 7.55777 71.3386 7.33697 71.5242 7.08097C71.9338 6.49217 72.2218 6.01217 72.3882 5.64097L72.513 5.37217H72.7722C72.6634 5.62817 72.5034 5.94497 72.2922 6.32257C72.081 6.69377 71.8794 7.00737 71.6874 7.26337C71.4954 7.51937 71.2682 7.75297 71.0058 7.96417C70.7434 8.16897 70.4938 8.27137 70.257 8.27137C69.3098 8.27137 68.8362 7.74017 68.8362 6.67777C68.8362 6.18497 68.9802 5.69217 69.2682 5.19937C69.665 4.51457 70.1546 4.17217 70.737 4.17217C71.1466 4.17217 71.3514 4.39617 71.3514 4.84417C71.3514 5.17697 71.2234 5.52257 70.9674 5.88097C70.609 6.36737 70.1898 6.61377 69.7098 6.62017C69.6394 6.62017 69.5946 6.58817 69.5754 6.52417L69.5658 6.48577C69.8986 6.48577 70.2154 6.26817 70.5162 5.83297C70.8234 5.39137 70.977 5.02337 70.977 4.72897C70.977 4.53057 70.9002 4.43137 70.7466 4.43137C70.4074 4.43137 70.0906 4.72897 69.7962 5.32417C69.553 5.82977 69.4314 6.33857 69.4314 6.85057Z" fill="black"/>
<path d="M72.239 4.05697C72.239 3.98657 72.2838 3.95137 72.3734 3.95137H72.8726C72.9046 3.82337 72.9462 3.66337 72.9974 3.47137L73.1318 2.97217C73.1702 2.82497 73.2022 2.69057 73.2278 2.56897C73.2598 2.44737 73.3174 2.38657 73.4006 2.38657C73.5094 2.38657 73.5862 2.46977 73.631 2.63617C73.6502 2.70657 73.6598 2.79297 73.6598 2.89537C73.6598 2.99777 73.6406 3.12897 73.6022 3.28897L73.4198 3.95137H74.015C74.0726 3.95137 74.111 3.97057 74.1302 4.00897C74.1558 4.04737 74.1558 4.08577 74.1302 4.12417C74.111 4.15617 74.0726 4.17217 74.015 4.17217H73.3622C72.9654 5.66337 72.767 6.71937 72.767 7.34017C72.767 7.79457 72.8694 8.02177 73.0742 8.02177C73.2406 8.02177 73.4742 7.80097 73.775 7.35937C74.0758 6.91777 74.335 6.47617 74.5526 6.03457L74.879 5.37217H75.1382C75.0998 5.44897 75.0486 5.55457 74.9846 5.68897C74.927 5.81697 74.8086 6.05057 74.6294 6.38977C74.4502 6.72257 74.2774 7.01697 74.111 7.27297C73.951 7.52897 73.7686 7.76257 73.5638 7.97377C73.3654 8.17857 73.1798 8.28097 73.007 8.28097C72.8342 8.28097 72.6838 8.22657 72.5558 8.11777C72.4342 8.00257 72.3574 7.84257 72.3254 7.63777C72.287 7.42657 72.2678 7.21217 72.2678 6.99457C72.2678 6.48897 72.447 5.54817 72.8054 4.17217H72.3734C72.3222 4.17217 72.287 4.15937 72.2678 4.13377C72.2486 4.10177 72.239 4.07617 72.239 4.05697Z" fill="black"/>
<path d="M75.9022 2.50177C76.0494 2.50177 76.123 2.60097 76.123 2.79937C76.123 2.99777 76.027 3.15777 75.835 3.27937C75.739 3.34337 75.6558 3.37537 75.5854 3.37537C75.483 3.37537 75.4222 3.34337 75.403 3.27937L75.3934 3.25057C75.451 3.25057 75.4926 3.18977 75.5182 3.06817C75.5438 2.94017 75.5822 2.81537 75.6334 2.69377C75.691 2.56577 75.7806 2.50177 75.9022 2.50177ZM75.2878 8.02177C75.4542 8.02177 75.6878 7.80097 75.9886 7.35937C76.2894 6.91777 76.5486 6.47617 76.7662 6.03457L77.0926 5.37217H77.3518C77.3134 5.44897 77.2622 5.55457 77.1982 5.68897C77.1406 5.81697 77.0222 6.05057 76.843 6.38977C76.6638 6.72257 76.491 7.01697 76.3246 7.27297C76.1646 7.52897 75.9822 7.76257 75.7774 7.97377C75.579 8.17857 75.4062 8.28097 75.259 8.28097C74.7854 8.28097 74.5486 7.97377 74.5486 7.35937C74.5486 6.89857 74.6798 6.14977 74.9422 5.11297C74.9678 5.00417 74.987 4.92097 74.9998 4.86337C75.019 4.80577 75.0382 4.73217 75.0574 4.64257C75.0766 4.54657 75.0958 4.46017 75.115 4.38337C75.147 4.24897 75.2046 4.18177 75.2878 4.18177C75.403 4.18177 75.4862 4.26497 75.5374 4.43137C75.563 4.50817 75.5758 4.60097 75.5758 4.70977C75.5758 4.81857 75.563 4.93377 75.5374 5.05537C75.5118 5.17057 75.4702 5.34337 75.4126 5.57377C75.355 5.80417 75.3102 5.99297 75.2782 6.14017C75.2462 6.28737 75.211 6.46657 75.1726 6.67777C75.1022 7.02977 75.067 7.34337 75.067 7.61857C75.067 7.88737 75.1406 8.02177 75.2878 8.02177Z" fill="black"/>
<path d="M76.9341 8.25217C76.7549 8.25217 76.6653 8.11457 76.6653 7.83937C76.6653 7.69217 76.8445 6.62017 77.2029 4.62337C77.2221 4.48897 77.2797 4.42177 77.3757 4.42177C77.4909 4.42177 77.5773 4.50497 77.6349 4.67137C77.6669 4.76097 77.6829 4.86017 77.6829 4.96897C77.6829 5.07137 77.6701 5.18337 77.6445 5.30497L77.4909 6.07297H77.5485C78.1245 4.78017 78.6749 4.13377 79.1997 4.13377C79.4045 4.13377 79.5613 4.19777 79.6701 4.32577C79.7789 4.44737 79.8333 4.61697 79.8333 4.83457C79.8333 5.05217 79.7469 5.52257 79.5741 6.24577C79.4013 6.96897 79.3149 7.47137 79.3149 7.75297C79.3149 8.16897 79.3917 8.37697 79.5453 8.37697C79.5453 8.42177 79.5165 8.46657 79.4589 8.51137C79.4013 8.55617 79.3341 8.57857 79.2573 8.57857C78.8861 8.57857 78.7005 8.28737 78.7005 7.70497C78.7005 7.34657 78.7965 6.80577 78.9885 6.08257C79.1869 5.35297 79.2861 4.88897 79.2861 4.69057C79.2861 4.48577 79.2061 4.38337 79.0461 4.38337C78.8157 4.38337 78.5373 4.68417 78.2109 5.28577C77.8909 5.88737 77.6317 6.46337 77.4333 7.01377C77.2413 7.55777 77.1293 7.90017 77.0973 8.04097C77.0717 8.18177 77.0173 8.25217 76.9341 8.25217Z" fill="black"/>
<path d="M83.5533 4.74817C83.7133 4.74817 83.7933 4.88257 83.7933 5.15137C83.7933 5.34337 83.6877 5.90017 83.4765 6.82177C83.2653 7.73697 83.0765 8.49537 82.9101 9.09697C82.7437 9.69857 82.5869 10.1434 82.4397 10.4314C82.2925 10.7258 82.1133 11.0202 81.9021 11.3146C81.6973 11.609 81.4701 11.8106 81.2205 11.9194C80.9709 12.0282 80.6829 12.0826 80.3565 12.0826C79.7485 12.0826 79.4445 11.7722 79.4445 11.1514C79.4445 10.7866 79.5821 10.393 79.8573 9.97057C80.2541 9.34977 80.7853 8.94017 81.4509 8.74177C81.6877 8.67137 81.9341 8.63617 82.1901 8.63617C82.2349 8.63617 82.2573 8.68097 82.2573 8.77057C82.2573 8.86017 82.2349 8.90497 82.1901 8.90497C81.4349 8.90497 80.8013 9.20257 80.2893 9.79777C79.9117 10.2458 79.7229 10.6778 79.7229 11.0938C79.7229 11.5098 79.8829 11.7498 80.2029 11.8138L80.3565 11.8234C80.8813 11.8234 81.2973 11.6058 81.6045 11.1706C81.9181 10.729 82.1645 10.1722 82.3437 9.50017C82.5229 8.82177 82.7533 7.75937 83.0349 6.31297H82.9581C82.2669 7.61217 81.6973 8.26177 81.2493 8.26177C80.7437 8.26177 80.4909 7.88097 80.4909 7.11937C80.4909 6.67777 80.6061 6.19457 80.8365 5.66977C81.1565 4.95937 81.5629 4.49537 82.0557 4.27777C82.2285 4.20737 82.4013 4.17217 82.5741 4.17217C82.7533 4.17217 82.8941 4.22337 82.9965 4.32577C83.0989 4.42817 83.1501 4.54337 83.1501 4.67137C83.1501 4.72897 83.1181 4.75777 83.0541 4.75777C82.9965 4.75137 82.9677 4.71937 82.9677 4.66177C82.9677 4.60417 82.9357 4.55297 82.8717 4.50817C82.8141 4.45697 82.7277 4.43137 82.6125 4.43137C82.2093 4.43137 81.8445 4.79297 81.5181 5.51617C81.2109 6.18817 81.0573 6.82497 81.0573 7.42657C81.0573 7.79777 81.1373 7.98337 81.2973 7.98337C81.5085 7.98337 81.7837 7.73377 82.1229 7.23457C82.6349 6.47937 83.0349 5.74017 83.3229 5.01697C83.3997 4.83777 83.4765 4.74817 83.5533 4.74817Z" fill="black"/>
</svg>
